# xmcd
# Copyright (C) 1995-1998 Ti Kan
#
# Track frame offsets:
#       150
#       17611
#       42543
#       58164
#       72727
#       89550
#
# Disc length: 1426 seconds
#
# Revision: 0
# Processed by: cddbd v1.5.2PL0 Copyright (c) Steve Scherf et al.
# Submitted via: CD-Import v1.0
#
DISCID=57059006
DTITLE=Comeback Special The - Comeback Special The
DYEAR=2007
DGENRE=
TTITLE0=This Is Where You Can't Be Found
TTITLE1=Forever Doomed, Forever Chained
TTITLE2=My Cinquecento
TTITLE3=That's Democracy, Baby
TTITLE4=Meredith Hunter
TTITLE5=More Than Nothing
EXTD=
EXTT0=
EXTT1=
EXTT2=
EXTT3=
EXTT4=
EXTT5=
PLAYORDER=
